<svg xmlns="http://www.w3.org/2000/svg" xmlns:xlink="http://www.w3.org/1999/xlink" width="1403.451" height="1062.719" viewBox="0 0 1403.451 1062.719">
  <defs>
    <filter id="Path_87" x="1095.968" y="304.86" width="307.484" height="307.483" filterUnits="userSpaceOnUse">
      <feOffset dy="3" input="SourceAlpha"/>
      <feGaussianBlur stdDeviation="3" result="blur"/>
      <feFlood flood-opacity="0.161"/>
      <feComposite operator="in" in2="blur"/>
      <feComposite in="SourceGraphic"/>
    </filter>
    <filter id="Path_88" x="1015.547" y="584.306" width="203.324" height="203.323" filterUnits="userSpaceOnUse">
      <feOffset dy="3" input="SourceAlpha"/>
      <feGaussianBlur stdDeviation="3" result="blur-2"/>
      <feFlood flood-opacity="0.161"/>
      <feComposite operator="in" in2="blur-2"/>
      <feComposite in="SourceGraphic"/>
    </filter>
    <filter id="Path_89" x="0" y="545.183" width="517.536" height="517.536" filterUnits="userSpaceOnUse">
      <feOffset dy="3" input="SourceAlpha"/>
      <feGaussianBlur stdDeviation="3" result="blur-3"/>
      <feFlood flood-opacity="0.161"/>
      <feComposite operator="in" in2="blur-3"/>
      <feComposite in="SourceGraphic"/>
    </filter>
    <filter id="Path_90" x="379.186" y="528.156" width="337.796" height="337.796" filterUnits="userSpaceOnUse">
      <feOffset dy="3" input="SourceAlpha"/>
      <feGaussianBlur stdDeviation="3" result="blur-4"/>
      <feFlood flood-opacity="0.161"/>
      <feComposite operator="in" in2="blur-4"/>
      <feComposite in="SourceGraphic"/>
    </filter>
    <filter id="Path_91" x="665.108" y="0" width="518.719" height="518.718" filterUnits="userSpaceOnUse">
      <feOffset dy="3" input="SourceAlpha"/>
      <feGaussianBlur stdDeviation="3" result="blur-5"/>
      <feFlood flood-opacity="0.161"/>
      <feComposite operator="in" in2="blur-5"/>
      <feComposite in="SourceGraphic"/>
    </filter>
  </defs>
  <g id="Group_298" data-name="Group 298" transform="translate(764.028 450.876)">
    <g transform="matrix(1, 0, 0, 1, -764.03, -450.88)" filter="url(#Path_87)">
      <path id="Path_87-2" data-name="Path 87" d="M411.718-100.339a52.7,52.7,0,0,1-58.556,46.108,52.7,52.7,0,0,1-46.108-58.555A52.7,52.7,0,0,1,365.608-158.9a52.7,52.7,0,0,1,46.109,58.556m85.144,41.107,7.265-61.1-30.4-3.616A114.946,114.946,0,0,0,466-151.358l24.061-18.947L452-218.646,427.936-199.7A114.935,114.935,0,0,0,403.1-213.636l3.614-30.4-61.1-7.267L342-220.9a114.842,114.842,0,0,0-27.412,7.724L295.644-237.24,247.3-199.175l18.945,24.061a114.827,114.827,0,0,0-13.936,24.836l-30.4-3.616-7.267,61.1,30.4,3.616a114.92,114.92,0,0,0,7.724,27.412L228.709-42.819,266.772,5.521l24.063-18.947A114.933,114.933,0,0,0,315.67.512l-3.616,30.4,61.1,7.267,3.616-30.4A114.817,114.817,0,0,0,404.18.053l18.947,24.062L471.468-13.95,452.521-38.011a114.835,114.835,0,0,0,13.938-24.836Z" transform="translate(890.32 562.16)" fill="#3985a3"/>
    </g>
    <g transform="matrix(1, 0, 0, 1, -764.03, -450.88)" filter="url(#Path_88)">
      <path id="Path_88-2" data-name="Path 88" d="M299.142,3.933a33.6,33.6,0,0,1-46.149,11.317A33.6,33.6,0,0,1,241.675-30.9a33.6,33.6,0,0,1,46.149-11.319A33.6,33.6,0,0,1,299.142,3.933M363.07-16.013l-9.344-38.1L334.761-49.46A73.215,73.215,0,0,0,324.023-64.1L334.14-80.793l-33.545-20.332L290.476-84.434a73.326,73.326,0,0,0-17.949-2.746l-4.649-18.963-38.1,9.344,4.651,18.963A73.165,73.165,0,0,0,219.789-67.1L203.1-77.214,182.764-43.667l16.693,10.118A73.147,73.147,0,0,0,196.711-15.6l-18.965,4.651,9.344,38.1L206.053,22.5a73.34,73.34,0,0,0,10.739,14.64L206.675,53.83l33.547,20.332L250.34,57.47a73.326,73.326,0,0,0,17.947,2.746l4.651,18.963,38.1-9.344-4.651-18.963a73.172,73.172,0,0,0,14.64-10.739l16.693,10.118L358.052,16.7,341.359,6.586a73.311,73.311,0,0,0,2.746-17.947Z" transform="translate(846.8 696.45)" fill="#9895a3"/>
    </g>
    <g transform="matrix(1, 0, 0, 1, -764.03, -450.88)" filter="url(#Path_89)">
      <path id="Path_89-2" data-name="Path 89" d="M242.275,185.59A64.788,64.788,0,1,1,185.59,113.6a64.789,64.789,0,0,1,56.685,71.987m104.672,50.535,8.931-75.112L318.5,156.568a141.313,141.313,0,0,0-9.5-33.7l29.58-23.293-46.8-59.428-29.58,23.293a141.3,141.3,0,0,0-30.531-17.135l4.443-37.373L161.014,0,156.57,37.376a141.18,141.18,0,0,0-33.7,9.5L99.579,17.289l-59.428,46.8,23.291,29.58A141.163,141.163,0,0,0,46.309,124.2L8.933,119.753,0,194.865l37.376,4.445a141.277,141.277,0,0,0,9.5,33.7L17.292,256.3,64.086,315.73l29.582-23.293A141.295,141.295,0,0,0,124.2,309.571l-4.445,37.372,75.112,8.933L199.31,318.5a141.152,141.152,0,0,0,33.7-9.5L256.3,338.588l59.428-46.8-23.293-29.58a141.172,141.172,0,0,0,17.135-30.533Z" transform="matrix(-0.79, -0.62, 0.62, -0.79, 289.44, 1050.72)" fill="#4ed1d1"/>
    </g>
    <g transform="matrix(1, 0, 0, 1, -764.03, -450.88)" filter="url(#Path_90)">
      <path id="Path_90-2" data-name="Path 90" d="M149.238,135.323a41.305,41.305,0,1,1-13.913-56.734,41.306,41.306,0,0,1,13.913,56.734M227.829,110.8,216.342,63.965l-23.314,5.718a90.006,90.006,0,0,0-13.2-18l12.436-20.522-41.239-25-12.439,20.52a90.144,90.144,0,0,0-22.065-3.376L110.8,0,63.968,11.488,69.686,34.8a89.946,89.946,0,0,0-18,13.2L31.166,35.564l-25,41.241L26.691,89.244a89.922,89.922,0,0,0-3.376,22.063L0,117.025l11.488,46.837L34.8,158.144a90.162,90.162,0,0,0,13.2,18L35.564,196.663l41.241,25,12.438-20.52a90.143,90.143,0,0,0,22.063,3.376l5.718,23.312,46.837-11.488-5.718-23.312a89.954,89.954,0,0,0,18-13.2l20.522,12.439,25-41.241-20.522-12.438a90.124,90.124,0,0,0,3.376-22.063Z" transform="matrix(-0.79, -0.62, 0.62, -0.79, 567.72, 853.95)" fill="#18649e"/>
    </g>
    <g transform="matrix(1, 0, 0, 1, -764.03, -450.88)" filter="url(#Path_91)">
      <path id="Path_91-2" data-name="Path 91" d="M487.636-42.183a73,73,0,0,1-81.114,63.869,73,73,0,0,1-63.869-81.111A73,73,0,0,1,423.764-123.3a73,73,0,0,1,63.872,81.114M605.579,14.76l10.064-84.635-42.112-5.009a159.225,159.225,0,0,0-10.7-37.971l33.33-26.246-52.73-66.963L510.1-179.819a159.211,159.211,0,0,0-34.4-19.307l5.006-42.112L396.071-251.3l-5.006,42.114a159.081,159.081,0,0,0-37.971,10.7l-26.246-33.333-66.963,52.73,26.244,33.33a159.061,159.061,0,0,0-19.3,34.4l-42.114-5.009L214.643-31.732l42.114,5.009a159.189,159.189,0,0,0,10.7,37.971l-33.33,26.246,52.727,66.963,33.333-26.246a159.208,159.208,0,0,0,34.4,19.307l-5.009,42.111,84.635,10.066,5.009-42.113a159.048,159.048,0,0,0,37.971-10.7l26.246,33.331L570.4,77.485l-26.246-33.33a159.068,159.068,0,0,0,19.307-34.4Z" transform="translate(542.32 426.32) rotate(-17)" fill="#0000b1"/>
    </g>
  </g>
</svg>
