<svg xmlns="http://www.w3.org/2000/svg" width="22.5" height="18" viewBox="0 0 22.5 18"><defs><style>.a{fill:#727272;}</style></defs><path class="a" d="M0,7.875v9.562A.562.562,0,0,0,.562,18H3.375V6.75H1.125A1.125,1.125,0,0,0,0,7.875ZM12.656,6.187h-.844V4.781a.281.281,0,0,0-.281-.281h-.562a.281.281,0,0,0-.281.281v2.25a.281.281,0,0,0,.281.281h1.688a.281.281,0,0,0,.281-.281V6.469A.281.281,0,0,0,12.656,6.187ZM17.5,3.939,11.874.189a1.126,1.126,0,0,0-1.248,0L5,3.939a1.125,1.125,0,0,0-.5.936V18H9V12.937a.562.562,0,0,1,.563-.562h3.375a.562.562,0,0,1,.562.563V18H18V4.875A1.125,1.125,0,0,0,17.5,3.939ZM11.25,9a2.812,2.812,0,1,1,2.812-2.812A2.813,2.813,0,0,1,11.25,9ZM21.375,6.75h-2.25V18h2.813a.562.562,0,0,0,.563-.562V7.875A1.125,1.125,0,0,0,21.375,6.75Z" transform="translate(0 0)"/></svg>