<svg xmlns="http://www.w3.org/2000/svg" width="22.5" height="18" viewBox="0 0 22.5 18"><defs><style>.a{fill:#727272;}</style></defs><path class="a" d="M8.966,9.2a.563.563,0,0,0,.8,0l.4-.4a.563.563,0,0,0,0-.8L8.9,6.75l1.255-1.256a.563.563,0,0,0,0-.8l-.4-.4a.563.563,0,0,0-.8,0L6.915,6.352a.563.563,0,0,0,0,.8Zm3.375-.4.4.4a.563.563,0,0,0,.8,0l2.051-2.051a.563.563,0,0,0,0-.8L13.534,4.3a.563.563,0,0,0-.8,0l-.4.4a.563.563,0,0,0,0,.8L13.6,6.75,12.341,8.006A.563.563,0,0,0,12.341,8.8Zm9.6,5.824H13.414a1.108,1.108,0,0,1-1.151,1.125H10.125a1.194,1.194,0,0,1-1.152-1.125H.563A.564.564,0,0,0,0,15.188v.562A2.257,2.257,0,0,0,2.25,18h18a2.257,2.257,0,0,0,2.25-2.25v-.562A.564.564,0,0,0,21.938,14.625ZM20.25,1.688A1.692,1.692,0,0,0,18.563,0H3.937A1.692,1.692,0,0,0,2.25,1.688V13.5h18ZM18,11.25H4.5v-9H18Z"/></svg>