<svg xmlns="http://www.w3.org/2000/svg" width="24" height="24" viewBox="0 0 24 24"><defs><style>.a{fill:#727272;}</style></defs><path class="a" d="M20,8A12,12,0,1,0,32,20,12,12,0,0,0,20,8Zm0,21.677A9.677,9.677,0,1,1,29.677,20,9.672,9.672,0,0,1,20,29.677Zm5.189-12.348c0,3.244-3.5,3.294-3.5,4.493v.307a.581.581,0,0,1-.581.581H18.9a.581.581,0,0,1-.581-.581V21.71c0-1.73,1.311-2.421,2.3-2.977.85-.476,1.371-.8,1.371-1.431,0-.834-1.064-1.388-1.925-1.388-1.122,0-1.64.531-2.368,1.45a.581.581,0,0,1-.806.1l-1.346-1.021a.582.582,0,0,1-.128-.792,5.439,5.439,0,0,1,4.867-2.622C22.655,13.032,25.189,14.886,25.189,17.329Zm-3.157,8.09A2.032,2.032,0,1,1,20,23.387,2.035,2.035,0,0,1,22.032,25.419Z" transform="translate(-8 -8)"/></svg>