<svg xmlns="http://www.w3.org/2000/svg" xmlns:xlink="http://www.w3.org/1999/xlink" viewBox="0 0 439.39 302.64"><defs><style>.cls-1{fill:#fff;stroke-width:25px;}.cls-1,.cls-3{stroke:#1d1d1b;}.cls-1,.cls-2,.cls-3,.cls-4{stroke-miterlimit:10;}.cls-2{fill:#768cc6;stroke:#768cc6;opacity:0.15;}.cls-2,.cls-8{isolation:isolate;}.cls-3,.cls-4{fill:none;}.cls-3{stroke-width:40px;}.cls-4{stroke:#fcc10a;stroke-width:0.75px;}.cls-5{fill:#263671;}.cls-6{fill:#263c7d;}.cls-7{fill:#fcc10a;}.cls-8{opacity:0.4;}</style></defs><title>Zasób 2</title><g id="Warstwa_2" data-name="Warstwa 2"><g id="Warstwa_1-2" data-name="Warstwa 1"><ellipse class="cls-1" cx="154.91" cy="151.32" rx="142.41" ry="138.82"/><ellipse class="cls-2" cx="154.13" cy="150.57" rx="130.17" ry="126.93"/><line class="cls-3" x1="278.31" y1="203.4" x2="430.55" y2="278.39"/><path class="cls-4" d="M258.83,138.08c-4.81,31.47,5.21,54-18,76.36"/><path class="cls-5" d="M222.93,235.17c-6.24,22-50.09,25.6-68.75,25.83s-63.07-2.72-69.25-24.58C78,212,140.36,209.6,154.06,209.47S229.91,210.6,222.93,235.17Z"/><path class="cls-5" d="M222.8,235.34c-46,2.63-91.87,2.88-137.87,1.26-7.82-26.09-17.13-51.86-23.14-78.44,61.38,7.7,123.65,8.4,184.68-2.63C240.52,182.61,230.76,208.82,222.8,235.34Z"/><path class="cls-6" d="M157.5,49.12C114.79,87,72.68,117.85,27,151.66c40.81,28.55,83.19,54.34,126.5,78.88a1236.49,1236.49,0,0,0,126.76-82.79C235.9,115,197.91,87.25,157.5,49.12Z"/><polygon class="cls-7" points="250.38 202.1 231.24 218.63 245.34 226.77 250.38 202.1"/><image id="Warstwa_1_Obraz" data-name="Warstwa 1 Obraz" class="cls-8" width="560" height="728" transform="translate(44.79 34.71) scale(0.26)" xlink:href="Zasób 21.png"/></g></g></svg>